<?xml version="1.0" encoding="utf-8"?>
<!-- Generator: Adobe Illustrator 18.1.0, SVG Export Plug-In . SVG Version: 6.00 Build 0)  -->
<svg version="1.1" id="Layer_1" xmlns="http://www.w3.org/2000/svg" xmlns:xlink="http://www.w3.org/1999/xlink" x="0px" y="0px"
	 viewBox="0 0 300 300" enable-background="new 0 0 300 300" xml:space="preserve">
<g>
	<path fill="#5F96CF" d="M149.4,35.3c-65.5,0-118.6,53.1-118.6,118.6c0,65.5,53.1,118.6,118.6,118.6S268,219.4,268,153.9
		C268,88.4,214.9,35.3,149.4,35.3z M235.9,167.4c-3.7,26.8-4.4,27.2-6.9,28.6l-97.5,52.5c-4.1,2.2-9.2,0.7-11.4-3.4L63.2,204
		c-3.8-2.7-4.6-8-1.9-11.8l65-89.7c1.6-2.2,2.1-2.9,28.2-3.7c1.1,0,2.2-0.1,3.3-0.1c0.4-2.9,1.4-5.7,3-8.1c1-2.9,2.7-5.6,5.3-7.7
		c2.4-1.9,4.1-3.4,5.3-4.7c0.1-2.1-1-4.2-2.8-7.5l-1.9-3.7c-0.8-1.5-0.2-3.4,1.3-4.2c0.2-0.1,0.4-0.2,0.6-0.2
		c-0.6-1.5,0-3.2,1.4-3.9c1.5-0.8,3.4-0.2,4.2,1.4l1.8,3.5c3.4,6.3,5.4,10.9,1.1,16.9c-0.9,3.3-3.7,6.9-9.5,11.4
		c-0.6,0.4-1.1,0.9-1.5,1.5c-0.4,1.6-0.6,3.2-0.7,5c7-0.2,12.3-0.2,12.4-0.2c2,0,3.8,1.2,4.5,3.2c0,0.1,2.8,8.2,5.9,17.6
		c1.8-0.6,4.4-0.1,17.8,5.7c0.5-2.6,1.4-5,2.9-7.1c1-2.9,2.7-5.6,5.3-7.6c2.4-1.9,4.1-3.4,5.3-4.7c0.1-2.1-1-4.2-2.7-7.5l-1.9-3.7
		c-0.8-1.5-0.2-3.4,1.3-4.2c0.2-0.1,0.4-0.2,0.6-0.2c-0.6-1.5,0-3.2,1.4-3.9c1.5-0.8,3.4-0.2,4.2,1.4l1.8,3.5
		c3.4,6.3,5.4,10.9,1.1,16.9c-0.9,3.3-3.7,6.9-9.5,11.4c-0.6,0.4-1.1,0.9-1.5,1.5c-0.7,2.3-0.8,4.9-0.6,7.7c0.1,0.1,0.3,0.1,0.4,0.2
		c10.8,4.8,21.5,9.8,21.6,9.8c1.8,0.9,2.9,2.8,2.7,4.8C239,143.1,237.5,155.2,235.9,167.4z"/>
	<path fill="#5383B4" d="M236.3,138.1c-0.1,0-10.8-5-21.6-9.8c-0.1-0.1-0.3-0.1-0.4-0.2c-0.2-2.7-0.1-5.4,0.6-7.7
		c-6.7,8.2,0.4,26.8,3.9,33.6c0,0.1,0.1,0.2,0.1,0.3c0.2-0.1,0.4-0.1,0.6-0.2c1.2-0.6,1.8-1.8,1.7-3.1c2.2,4.4,0.5,9.8-3.9,12.2
		c-4.5,2.4-10.1,0.7-12.5-3.7c-2.4-4.5-0.7-10.1,3.7-12.5c0.2-0.1,0.3-0.1,0.5-0.2c-2.2-6.5-4.1-14.9-2.7-22.2
		c-13.4-5.8-16-6.3-17.8-5.7c0.6,1.9,1.3,3.8,1.9,5.7c8.4,25.8,7.9,26.5,6.2,28.7l-65,89.7c-2.7,3.8-8,4.6-11.8,1.9
		c2.2,4.1,7.3,5.6,11.4,3.4L229,196c2.5-1.3,3.2-1.7,6.9-28.6c1.7-12.1,3.1-24.3,3.1-24.4C239.2,140.9,238.2,139,236.3,138.1z"/>
	<path fill="#5F96CF" d="M217.5,158.3c-1.5,0.8-3.4,0.2-4.2-1.3c-0.2-0.4-2.3-4.5-4.2-10.1c-0.2,0.1-0.3,0.1-0.5,0.2
		c-4.5,2.4-6.1,8-3.7,12.5c2.4,4.5,8,6.2,12.5,3.7c4.4-2.4,6.1-7.8,3.9-12.2c0.1,1.2-0.5,2.5-1.7,3.1c-0.2,0.1-0.4,0.2-0.6,0.2
		C219.5,155.8,218.9,157.5,217.5,158.3z"/>
	<path fill="#FFFFFE" d="M131.8,243.2l65-89.7c1.7-2.3,2.2-3-6.2-28.7c-0.6-1.9-1.3-3.9-1.9-5.7c-3.1-9.4-5.9-17.5-5.9-17.6
		c-0.7-1.9-2.5-3.2-4.5-3.2c-0.1,0-5.4,0.1-12.4,0.2c-0.1,5.7,1.7,12.2,3.6,17.4c0.2,0.1,0.4,0.2,0.6,0.3c4.1,3,5,8.7,2.1,12.9
		c-3,4.1-8.7,5-12.9,2.1c-4.1-3-5-8.7-2.1-12.9c0.7-0.9,1.5-1.6,2.3-2.2c2.1,7.4,5,13.3,5.3,13.9c0.8,1.5,2.7,2.1,4.2,1.3
		c1.4-0.7,2.1-2.4,1.5-3.9c0-0.1-0.1-0.2-0.1-0.3c-3.5-6.9-10.6-25.5-3.9-33.7c0.4-0.5,0.9-1,1.5-1.5c5.7-4.5,8.5-8.1,9.5-11.4
		c1.2-4.2-0.6-8-3.2-12.8l-1.8-3.5c-0.7-1.3-2.2-2-3.6-1.6c-0.2,0.1-0.4,0.1-0.6,0.2c-1.5,0.8-2.1,2.6-1.3,4.2l1.9,3.7
		c1.8,3.3,2.9,5.4,2.8,7.5c-0.2,2.5-2.2,4.8-7.4,8.9c-1.3,1-2.4,2.2-3.3,3.5c-1.7,2.4-2.6,5.2-3,8.1c-1.1,0-2.2,0.1-3.3,0.1
		c-26.1,0.8-26.6,1.5-28.2,3.7l-65,89.7c-2.7,3.8-1.9,9.1,1.9,11.8l56.8,41.1C123.8,247.8,129.1,246.9,131.8,243.2z M130.7,191.4
		c-1.5,0-2.7-1.2-2.7-2.7c0-1.5,1.2-2.7,2.7-2.7c1.5,0,2.7,1.2,2.7,2.7C133.4,190.2,132.2,191.4,130.7,191.4z M114.4,188.7
		c0-1.5,1.2-2.7,2.7-2.7c1.5,0,2.7,1.2,2.7,2.7c0,1.5-1.2,2.7-2.7,2.7C115.6,191.4,114.4,190.2,114.4,188.7z M112.6,183
		c-0.7,0-1.4,0.4-1.6-0.3l-7.2-21.7H98v-1.7V157h7.1c0.7,0,1.4,0.1,1.6,0.8l7.2,22.2H137v-9h-20v-2v-1h22.2c0.9,0,0.8,0.1,0.8,1v14
		c0,0.9,0.1,0-0.8,0H112.6z"/>
	<path fill="#5F96CF" d="M171.1,127.1c-0.2,0.1-0.4,0.2-0.6,0.2c0.6,1.5,0,3.2-1.5,3.9c-1.5,0.8-3.4,0.2-4.2-1.3
		c-0.3-0.5-3.3-6.4-5.3-13.9c-0.9,0.6-1.7,1.3-2.3,2.2c-3,4.1-2.1,9.9,2.1,12.9c4.1,3,9.9,2.1,12.9-2.1c3-4.1,2.1-9.9-2.1-12.9
		c-0.2-0.1-0.4-0.2-0.6-0.3c1.1,2.8,2.2,5.3,3,7C173.3,124.4,172.6,126.3,171.1,127.1z"/>
	<path fill="#5383B4" d="M164.1,87c5.2-4.1,7.2-6.4,7.4-8.9c-1.2,1.3-2.9,2.9-5.3,4.7c-2.6,2.1-4.3,4.7-5.3,7.7
		C161.7,89.2,162.8,88,164.1,87z"/>
	<path fill="#5383B4" d="M172.4,64.2l1.8,3.5c2.6,4.8,4.3,8.6,3.2,12.8c4.3-6,2.3-10.6-1.1-16.9l-1.8-3.5c-0.8-1.5-2.7-2.2-4.2-1.4
		c-1.4,0.8-2.1,2.4-1.4,3.9C170.2,62.2,171.7,62.9,172.4,64.2z"/>
	<path fill="#5383B4" d="M170.4,127c0,0.1,0.1,0.2,0.1,0.3c0.2-0.1,0.4-0.1,0.6-0.2c1.5-0.8,2.1-2.7,1.4-4.2c-0.9-1.7-2-4.2-3-7
		c-1.9-5.2-3.7-11.7-3.6-17.4c0-1.8,0.2-3.5,0.7-5C159.8,101.6,166.9,120.1,170.4,127z"/>
	<path fill="#5383B4" d="M212.5,114.1c5.2-4.1,7.2-6.4,7.4-8.9c-1.2,1.3-2.9,2.9-5.3,4.7c-2.6,2.1-4.3,4.7-5.3,7.6
		C210.2,116.3,211.2,115.1,212.5,114.1z"/>
	<path fill="#5383B4" d="M220.8,91.2l1.8,3.5c2.6,4.8,4.3,8.6,3.2,12.8c4.3-6,2.3-10.6-1.1-16.9l-1.8-3.5c-0.8-1.5-2.7-2.2-4.2-1.4
		c-1.4,0.8-2.1,2.4-1.4,3.9C218.6,89.3,220.2,89.9,220.8,91.2z"/>
	<path fill="#FFFFFE" d="M209.1,146.8c1.9,5.6,3.9,9.7,4.2,10.1c0.8,1.5,2.7,2.1,4.2,1.3c1.4-0.7,2-2.4,1.5-3.9
		c0-0.1-0.1-0.2-0.1-0.3c-3.5-6.9-10.6-25.5-3.9-33.6c0.4-0.5,0.9-1,1.5-1.5c5.7-4.5,8.5-8.1,9.5-11.4c1.2-4.2-0.6-8-3.2-12.8
		l-1.8-3.5c-0.7-1.3-2.2-2-3.6-1.6c-0.2,0.1-0.4,0.1-0.6,0.2c-1.5,0.8-2.1,2.6-1.3,4.2l1.9,3.7c1.8,3.3,2.9,5.4,2.7,7.5
		c-0.2,2.5-2.2,4.8-7.4,8.9c-1.3,1-2.4,2.2-3.3,3.5c-1.5,2.1-2.4,4.5-2.9,7.1C205,131.9,206.9,140.4,209.1,146.8z"/>
	<path fill="#5F96CF" d="M140,183v-14c0-0.9,0.1-1-0.8-1H117v1v2h20v9h-23.1l-7.2-22.2c-0.2-0.7-0.9-0.8-1.6-0.8H98v2.3v1.7h5.8
		l7.2,21.7c0.2,0.7,0.9,0.3,1.6,0.3h26.6C140.1,183,140,184,140,183z"/>
	<path fill="#5F96CF" d="M119.8,188.7c0-1.5-1.2-2.7-2.7-2.7c-1.5,0-2.7,1.2-2.7,2.7c0,1.5,1.2,2.7,2.7,2.7
		C118.6,191.4,119.8,190.2,119.8,188.7z"/>
	<path fill="#5F96CF" d="M130.7,186c-1.5,0-2.7,1.2-2.7,2.7c0,1.5,1.2,2.7,2.7,2.7c1.5,0,2.7-1.2,2.7-2.7
		C133.4,187.2,132.2,186,130.7,186z"/>
</g>
</svg>
